<?xml version="1.0" encoding="UTF-8"?>
<svg width="11px" height="12px" viewBox="0 0 11 12" version="1.1" xmlns="http://www.w3.org/2000/svg" xmlns:xlink="http://www.w3.org/1999/xlink">
    <!-- Generator: Sketch 51.3 (57544) - http://www.bohemiancoding.com/sketch -->
    <title>Group 6</title>
    <desc>Created with Sketch.</desc>
    <defs></defs>
    <g id="Page-1" stroke="none" stroke-width="1" fill="none" fill-rule="evenodd">
        <g id="A4" transform="translate(-283.000000, -195.000000)" stroke="#FFFFFF">
            <g id="Group-8-Copy-2" transform="translate(248.000000, 177.000000)">
                <g id="Group-7-Copy" transform="translate(51.671010, 52.969846) rotate(-20.000000) translate(-51.671010, -52.969846) translate(12.171010, 11.969846)">
                    <g id="Group-6" transform="translate(38.214914, 10.412688) rotate(60.000000) translate(-38.214914, -10.412688) translate(36.214914, 3.412688)">
                        <path d="M0.25,11.1163581 C1.01406137,12.6454482 1.59087903,13.4486371 1.80467623,13.4486371 C2.01847343,13.4486371 2.59529109,12.6454482 3.35935246,11.1163581 C3.35935246,4.52920008 3.35935246,4.51902423 3.35935246,1.08147135 C3.35935246,0.601216396 2.70000918,0.25 1.80467623,0.25 C0.909343281,0.25 0.25,0.601216396 0.25,1.08147135 C0.25,2.10286096 0.25,2.10286096 0.25,4.3258854 C0.25,7.13590212 0.25,7.14965957 0.25,11.1163681 Z" id="Rectangle-3" stroke-width="0.5"></path>
                        <path d="M0.721870492,2.1629427 L2.88748197,2.1629427" id="Line-3" stroke-width="0.3" stroke-linecap="square"></path>
                        <path d="M0.721870492,10.8147135 L2.88748197,10.8147135" id="Line-3-Copy" stroke-width="0.3" stroke-linecap="square"></path>
                        <path d="M1.87686328,2.1629427 L1.87686328,10.8147135" id="Line-4" stroke-width="0.3" stroke-linecap="square"></path>
                    </g>
                </g>
            </g>
        </g>
    </g>
</svg>