<?xml version="1.0" encoding="UTF-8"?>
<svg width="32px" height="24px" viewBox="0 0 32 24" version="1.1" xmlns="http://www.w3.org/2000/svg" xmlns:xlink="http://www.w3.org/1999/xlink">
    <!-- Generator: Sketch 51.3 (57544) - http://www.bohemiancoding.com/sketch -->
    <title>Group 5</title>
    <desc>Created with Sketch.</desc>
    <defs></defs>
    <g id="Page-1" stroke="none" stroke-width="1" fill="none" fill-rule="evenodd">
        <g id="Mobile" transform="translate(-183.000000, -73.000000)" stroke="#FFFFFF" stroke-width="0.5">
            <g id="Group-2" transform="translate(127.000000, 32.000000)">
                <g id="Group-5" transform="translate(52.000000, 32.000000)">
                    <ellipse id="Oval" transform="translate(19.746067, 19.965702) rotate(-51.000000) translate(-19.746067, -19.965702) " cx="19.7460669" cy="19.9657018" rx="10.2568921" ry="10.3133521"></ellipse>
                    <path d="M18.6391164,16.3287033 C18.256194,16.2665717 17.8633358,16.2342815 17.462977,16.2342815 C13.4167448,16.2342815 10.1366255,19.5324565 10.1366255,23.6009615 C10.1366255,24.0156893 10.1707091,24.4224125 10.2362135,24.8184538" id="Oval-Copy" transform="translate(14.387871, 20.526368) rotate(-51.000000) translate(-14.387871, -20.526368) "></path>
                    <path d="M29.7694134,19.4749654 C33.9594856,21.8020888 36.5842733,24.5806799 35.5556005,27.278199 C32.548548,35.1636819 -0.783011133,24.3418021 1.51445085,16.6367168 C2.27922925,14.0718505 6.67652579,13.4244866 12.080176,14.0248841 C13.9545036,11.9792187 16.6411616,10.6976484 19.6255077,10.6976484 C24.7711139,10.6976484 29.0317344,14.5075796 29.7694134,19.4749654 Z" id="Path-2" transform="translate(18.590030, 20.361972) rotate(-51.000000) translate(-18.590030, -20.361972) "></path>
                </g>
            </g>
        </g>
    </g>
</svg>