<?xml version="1.0" encoding="UTF-8"?>
<svg width="32px" height="23px" viewBox="0 0 32 23" version="1.1" xmlns="http://www.w3.org/2000/svg" xmlns:xlink="http://www.w3.org/1999/xlink">
    <!-- Generator: Sketch 51.3 (57544) - http://www.bohemiancoding.com/sketch -->
    <title>Path 4</title>
    <desc>Created with Sketch.</desc>
    <defs></defs>
    <g id="Page-1" stroke="none" stroke-width="1" fill="none" fill-rule="evenodd">
        <g id="Mobile" transform="translate(-127.000000, -39.000000)" stroke="#FFFFFF" stroke-width="0.6">
            <g id="Group-2" transform="translate(127.000000, 32.000000)">
                <path d="M3.92417438,23.9905838 C2.73274376,24.9853526 -1.18027119,27.3628858 0.349882524,26.9748901 L1.46717773,29 C5.66790363,27.9348369 4.47061145,15.589448 5.00462121,16.3534212 C7.3476111,19.7053853 3.96911997,24.6723058 5.48891407,28.4312618 C6.18685249,30.1574954 6.06015028,24.0993849 7.8340496,23.351538 C17.5553601,19.2531925 8.45530274,33.6444147 12.5256367,21.2197112 C12.7486522,20.5389557 12.3860742,23.7580646 12.9730811,23.3163842 L15.6906484,23.1381042 C21.4582319,18.7984136 26.5635495,13.7127014 32,9" id="Path-4" transform="translate(16.000000, 19.000000) scale(-1, 1) rotate(65.000000) translate(-16.000000, -19.000000) "></path>
            </g>
        </g>
    </g>
</svg>