<?xml version="1.0" encoding="UTF-8"?>
<svg width="233px" height="134px" viewBox="0 0 233 134" version="1.1" xmlns="http://www.w3.org/2000/svg" xmlns:xlink="http://www.w3.org/1999/xlink">
    <defs></defs>
    <g id="Page-1" stroke="none" stroke-width="1" fill="none" fill-rule="evenodd">
        <g id="Mobile-Copy-3" transform="translate(-567.000000, -120.000000)" fill="#FFFFFF" stroke="#FFFFFF">
            <g id="Group-2" transform="translate(567.000000, 120.000000)">
                <polygon id="Star-Copy" transform="translate(112.500000, 124.500000) rotate(26.000000) translate(-112.500000, -124.500000) " points="112.5 128.835093 106 131 108.164907 124.5 106 118 112.5 120.164907 119 118 116.835093 124.5 119 131"></polygon>
                <polygon id="Star" transform="translate(9.500000, 63.500000) rotate(26.000000) translate(-9.500000, -63.500000) " points="9.5 67.8350933 3 70 5.16490668 63.5 3 57 9.5 59.1649067 16 57 13.8350933 63.5 16 70"></polygon>
                <polygon id="Star-Copy-2" transform="translate(223.500000, 9.500000) rotate(46.000000) translate(-223.500000, -9.500000) " points="223.5 14.5020308 218 17 219.831844 9.5 218 2 223.5 4.49796925 229 2 227.168156 9.5 229 17"></polygon>
            </g>
        </g>
    </g>
</svg>
