<?xml version="1.0" encoding="UTF-8"?>
<svg width="31px" height="31px" viewBox="0 0 31 31" version="1.1" xmlns="http://www.w3.org/2000/svg" xmlns:xlink="http://www.w3.org/1999/xlink">
    <defs></defs>
    <g id="Page-1" stroke="none" stroke-width="1" fill="none" fill-rule="evenodd">
        <g id="Mobile" transform="translate(-174.000000, -38.000000)" stroke="#FFFFFF" stroke-width="0.5">
            <g id="Group-2" transform="translate(127.000000, 32.000000)">
                <g id="Group" transform="translate(47.000000, 5.000000)">
                    <path d="M21.8111594,24.2495009 L23.0411598,29.5629892 L19.1801223,25.6433753 C20.1030626,25.3210867 20.9907269,24.8574233 21.8111594,24.2495009 Z M18.275373,25.9116337 L17.3733177,31.337943 L15.2696409,26.1793128 C16.274448,26.2418616 17.2885876,26.1537389 18.275373,25.9116337 Z M14.3941052,26.0862693 L11.4465804,30.8030249 L11.4712477,25.1750452 C12.3997647,25.6295838 13.3866952,25.9344664 14.3941052,26.0862693 Z M10.7482783,24.7835271 L6.16323991,28.0396713 L8.3619227,22.8037295 C9.06899313,23.602796 9.87614475,24.2637845 10.7482783,24.7835271 Z M7.8751396,22.2103982 L2.32763698,23.4685777 L6.39226126,19.4576715 C6.73169746,20.4248242 7.22496171,21.3545397 7.8751396,22.2103982 Z M6.17473202,18.7565612 L0.523707351,17.7856517 L5.83834951,15.6382378 C5.78729684,16.6814273 5.89826831,17.7345132 6.17473202,18.7565612 Z M5.89895077,14.9229558 L1.02608296,11.8560673 L6.75460909,11.9122201 C6.31047248,12.8692303 6.02409701,13.8864536 5.89895077,14.9229558 Z M7.0867364,11.2607191 L3.75828168,6.58254998 L9.01001052,8.81541492 C8.22577838,9.54181071 7.58365847,10.369052 7.0867364,11.2607191 Z M9.58918086,8.31829134 L8.30435101,2.76794488 L12.272243,6.79603442 C11.3259456,7.15165447 10.4198918,7.65801748 9.58918086,8.31829134 Z M13.0500778,6.53997158 L13.9721931,0.992991085 L16.0818065,6.16617914 C15.0641591,6.13521031 14.0409382,6.25866654 13.0500778,6.53997158 Z M16.9597002,6.23139147 L19.8989304,1.52790921 L19.8747997,7.03345574 C18.943704,6.61825198 17.9597752,6.3497935 16.9597002,6.23139147 Z M20.7207067,7.45971969 L25.1822709,4.29126284 L23.0774157,9.30376348 C22.3716643,8.55809526 21.5754427,7.9424526 20.7207067,7.45971969 Z M23.7280906,10.0620848 L29.0178738,8.86235641 L25.1841711,12.6453929 C24.8373937,11.7376831 24.3529024,10.8663247 23.7280906,10.0620848 Z M25.5034288,13.6315259 L30.8218034,14.5452824 L25.8390027,16.5586137 C25.8710406,15.5784684 25.7601389,14.591485 25.5034288,13.6315259 Z M25.7508175,17.5994721 L30.3194278,20.4748668 L24.9281139,20.4220195 C25.3423558,19.5226172 25.6175466,18.5704806 25.7508175,17.5994721 Z M24.4478723,21.3359936 L27.5872291,25.7483841 L22.579479,23.619251 C23.3300498,22.9391464 23.9537165,22.1678049 24.4478723,21.3359936 Z" id="Combined-Shape"></path>
                    <ellipse id="Oval-Copy-2" transform="translate(15.835341, 16.180141) rotate(-40.000000) translate(-15.835341, -16.180141) " cx="15.8353413" cy="16.1801413" rx="9.98607528" ry="10.0410445"></ellipse>
                </g>
            </g>
        </g>
    </g>
</svg>
